<svg viewBox="0 0 57.9544 45.7333" xmlns="http://www.w3.org/2000/svg" xmlns:xlink="http://www.w3.org/1999/xlink" width="57.954407" height="45.733337" fill="none" customFrame="#000000">
	<g id="Group 1000003027">
		<path id="Vector 1054" d="M0 24.0765L0 0L24.132 0L24.132 21.4013C24.132 24.0765 24.6052 28.5351 20.3466 36.1148C15.1829 45.3054 5.04722 46.3696 0 45.4779L0 37.8982C12.4919 38.2549 15.9303 28.8324 16.088 24.0765L0 24.0765Z" fill="rgb(55,43,12)" fill-rule="evenodd" />
		<path id="Vector 1055" d="M33.8067 24.0765L33.8067 0L57.9387 0L57.9387 21.4013C57.9387 24.0765 58.4119 28.5351 54.1533 36.1148C48.9896 45.3054 38.8539 46.3696 33.8067 45.4779L33.8067 37.8982C46.2986 38.2549 49.737 28.8324 49.8947 24.0765L33.8067 24.0765Z" fill="rgb(55,43,12)" fill-rule="evenodd" />
	</g>
</svg>
